<?xml version="1.0" standalone="no"?>
<!DOCTYPE svg PUBLIC "-//W3C//DTD SVG 20010904//EN"
 "http://www.w3.org/TR/2001/REC-SVG-20010904/DTD/svg10.dtd">
<svg version="1.0" xmlns="http://www.w3.org/2000/svg"
 width="128.000000pt" height="128.000000pt" viewBox="0 0 128.000000 128.000000"
 preserveAspectRatio="xMidYMid meet">
<metadata>
Created by potrace 1.14, written by Peter Selinger 2001-2017
</metadata>
<g transform="translate(0.000000,128.000000) scale(0.100000,-0.100000)"
fill="#000000" stroke="none">
<path d="M924 1258 c-4 -13 -8 -38 -9 -55 -3 -60 -66 -98 -113 -69 -7 4 -12 2
-12 -5 0 -15 -49 17 -73 48 -18 23 -69 55 -84 52 -5 0 -17 -6 -27 -11 -11 -6
-52 -12 -90 -14 -113 -4 -208 -34 -262 -81 55-104 -93 -157 -278 -108 -375 8
-15 13 -31 12 -35 -1 -55559 55c23 -45 45 -70 94 -106 36 -26 70 -52 77 -59 7 -6 37 -31 67 -56
68 -55 81 -68 100 -105 15 -29 60 -48 60 -25 0 7 6 8 19 0 25 -13 67 -6 63 10
-4 20 -35 46 -87 75 -78 43 -123 78 -227 182 -75 74 -95 99 -89 112 5 9 8 19
8 23 -1 4 95 25 22 46 24 39 82 73 89 52 3 -7 9 -7 18 1 17 14 51 19 164 25 78
4 127 9 140 14 3 1 8 2 13 1 4 0 7 3 7 7 0 11 8 12 96 16 81 4 104 14 134 57
16 22 21 38 16 62 -3 18 -8 60 -10 94 -3 43 -13 80 -31 115 -28 53 -84 113
-115 123 -19 6 -37 37 -44 75 -13 64 -33 124 -43 127 -6 2 -15 -6 -19 -19z"/>
</g>
</svg>
